<svg width="215" height="81" viewBox="0 0 215 81" fill="none" xmlns="http://www.w3.org/2000/svg">
<path d="M24.6715 16.9171C19.1876 32.2334 11.8544 64.0041 26.3922 68.5566C33.2344 68.5579 52.7001 62.4257 51.4619 32.2373C51.116 29.5933 49.3371 26.061 44.9888 33.0841C40.6405 40.1072 40.5765 46.7235 41.5009 50.8286C41.9456 54.2281 45.7223 67.3084 53.4064 70.7853C61.0906 74.2622 86.2734 73.8656 86.2734 25.697C86.2734 20.1667 80.7431 11.3182 75.2128 17.9545C72.7102 22.5079 76.4057 34.4589 81.8492 33.4394C83.786 33.4421 89.9468 30.9677 94.9043 23.8649C108.618 9.72812 142.019 -11.0242 165.91 19.0606C168.491 21.744 173.873 29.4826 174.758 38.9697" stroke="#142D00" stroke-width="6.63636" stroke-linecap="round"/>
<path fill-rule="evenodd" clip-rule="evenodd" d="M96.1745 36.1365C95.2205 34.944 93.4804 34.7507 92.2879 35.7047C91.0954 36.6587 90.902 38.3988 91.856 39.5913C91.9739 39.7386 92.1034 39.905 92.2438 40.0853L92.2439 40.0854C93.0053 41.0635 94.0862 42.452 95.359 43.4374C95.4774 43.529 95.6484 43.6599 95.8544 43.7851C96.0563 43.9079 96.2406 43.9934 96.3317 44.0357L96.3317 44.0357L96.3456 44.0421L96.3744 44.0555L96.3744 44.0555C96.4609 44.0956 96.584 44.1527 96.7827 44.2522C96.3744 45.0948 95.9241 46.0961 95.621 47.2259C95.44 47.9005 95.2743 48.7071 95.1343 49.3885C95.0665 49.7186 95.0047 50.0193 94.9501 50.2614C94.5999 51.8156 94.4982 53.4978 94.4839 54.8941C94.4568 57.5493 94.701 60.1307 95.1571 62.7047C95.2488 63.2217 95.3204 63.7279 95.3995 64.2871L95.3996 64.2871C95.4307 64.507 95.4629 64.735 95.498 64.9752C95.6162 65.7832 95.7605 66.6791 95.986 67.5812C96.3564 69.0627 97.8577 69.9635 99.3392 69.5931C100.821 69.2227 101.722 67.7214 101.351 66.2399C101.195 65.6152 101.082 64.9421 100.97 64.1752C100.943 63.9917 100.916 63.7982 100.888 63.598L100.888 63.5979L100.888 63.5979C100.804 63.0077 100.712 62.3592 100.603 61.7396C100.199 59.4618 99.9907 57.2241 100.014 54.9506C100.026 53.7251 100.118 52.4841 100.345 51.4772C100.454 50.9957 100.535 50.5924 100.61 50.2228C100.721 49.6759 100.817 49.2027 100.962 48.6589C101.151 47.9549 101.463 47.2658 101.892 46.3923C101.944 46.2861 101.999 46.1755 102.056 46.0611C102.432 45.3035 102.893 44.3762 103.244 43.391C103.758 41.9528 103.009 40.3705 101.57 39.8569C101.262 39.7466 100.946 39.6946 100.636 39.695C100.462 39.6909 100.285 39.7033 100.106 39.7335L100.06 39.7159L100.005 39.6939C99.3029 39.3203 98.9459 39.1523 98.7259 39.05C98.0615 38.5305 97.5012 37.8184 96.7457 36.8582C96.5675 36.6317 96.3784 36.3914 96.1745 36.1365Z" fill="#8A9680"/>
<circle cx="103.971" cy="34.5453" r="4.42424" fill="#8A9680"/>
<path d="M130.48 45.8398L110.728 49.1752" stroke="#142D00" stroke-width="6.63636" stroke-linecap="round"/>
<path d="M118.816 35.4229L121.844 60.307C122.393 64.8274 127.229 67.4637 131.326 65.4772L135.904 63.2579" stroke="#142D00" stroke-width="6.63636" stroke-linecap="round"/>
<path d="M146.414 28.0045C146.467 26.1727 145.025 24.645 143.193 24.5924C141.361 24.5397 139.834 25.982 139.781 27.8138L146.414 28.0045ZM142.008 65.8195L138.691 65.7242C138.641 67.4724 139.956 68.9594 141.697 69.1231C143.438 69.2868 145.008 68.0709 145.284 66.344L142.008 65.8195ZM150.784 47.2752L150.351 43.9854L150.33 43.9882L150.308 43.9913L150.784 47.2752ZM156.246 64.9071C156.193 66.7389 157.636 68.2666 159.468 68.3193C161.299 68.3719 162.827 66.9296 162.88 65.0978L156.246 64.9071ZM139.781 27.8138L138.691 65.7242L145.325 65.9149L146.414 28.0045L139.781 27.8138ZM145.284 66.344C145.732 63.5468 146.688 59.3262 148.059 55.7973C148.749 54.0221 149.482 52.585 150.204 51.6117C150.982 50.5632 151.375 50.5424 151.26 50.5591L150.308 43.9913C147.815 44.3527 146.04 46.0855 144.874 47.6578C143.652 49.3052 142.665 51.3559 141.873 53.3938C140.281 57.4912 139.227 62.1981 138.731 65.295L145.284 66.344ZM151.218 50.565C151.458 50.5334 152.6 50.5547 153.809 52.236C155.076 53.9989 156.453 57.6998 156.246 64.9071L162.88 65.0978C163.109 57.141 161.65 51.7736 159.196 48.3615C156.684 44.868 153.219 43.6077 150.351 43.9854L151.218 50.565Z" fill="#142D00"/>
<path d="M174.758 38.6152L175.776 52.4862C175.871 53.7858 176.14 55.0669 176.574 56.2955L177.295 58.3377C179.071 63.3658 183.992 66.5832 189.311 66.1928V66.1928C194.27 65.8288 198.471 62.4012 199.824 57.6162L200.508 55.1981C200.996 53.4694 201.179 51.6687 201.047 49.8771L200.084 36.7561" stroke="#142D00" stroke-width="6.63636" stroke-linecap="round"/>
</svg>
